<svg width="4" height="10" viewBox="0 0 4 10" fill="none" xmlns="http://www.w3.org/2000/svg">
<path d="M2.00001 2.66667C2.64168 2.66667 3.16668 2.14167 3.16668 1.5C3.16668 0.858333 2.64168 0.333333 2.00001 0.333333C1.35834 0.333333 0.833344 0.858333 0.833344 1.5C0.833344 2.14167 1.35834 2.66667 2.00001 2.66667ZM2.00001 3.83333C1.35834 3.83333 0.833344 4.35833 0.833344 5C0.833344 5.64167 1.35834 6.16667 2.00001 6.16667C2.64168 6.16667 3.16668 5.64167 3.16668 5C3.16668 4.35833 2.64168 3.83333 2.00001 3.83333ZM2.00001 7.33333C1.35834 7.33333 0.833344 7.85833 0.833344 8.5C0.833344 9.14167 1.35834 9.66667 2.00001 9.66667C2.64168 9.66667 3.16668 9.14167 3.16668 8.5C3.16668 7.85833 2.64168 7.33333 2.00001 7.33333Z" fill="#AAAAAA"/>
</svg>
